<svg width="24" height="24" viewBox="0 0 24 24" fill="none" xmlns="http://www.w3.org/2000/svg">
<path d="M4 7.00006H20" stroke="#AFAFAF" stroke-linecap="round" stroke-linejoin="round"/>
<path d="M10 10.9999V16.9999" stroke="#AFAFAF" stroke-linecap="round" stroke-linejoin="round"/>
<path d="M14 10.9999V16.9999" stroke="#AFAFAF" stroke-linecap="round" stroke-linejoin="round"/>
<path d="M5 7.00006L6 19.0001C6 19.5305 6.21071 20.0392 6.58579 20.4143C6.96086 20.7893 7.46957 21.0001 8 21.0001H16C16.5304 21.0001 17.0391 20.7893 17.4142 20.4143C17.7893 20.0392 18 19.5305 18 19.0001L19 7.00006" stroke="#AFAFAF" stroke-linecap="round" stroke-linejoin="round"/>
<path d="M9 7V4C9 3.73478 9.10536 3.48043 9.29289 3.29289C9.48043 3.10536 9.73478 3 10 3H14C14.2652 3 14.5196 3.10536 14.7071 3.29289C14.8946 3.48043 15 3.73478 15 4V7" stroke="#AFAFAF" stroke-linecap="round" stroke-linejoin="round"/>
</svg>
